<svg width="960" height="1280" viewBox="0 0 960 1280" fill="none" xmlns="http://www.w3.org/2000/svg">
  <rect width="960" height="1280" rx="64" fill="#F1E8DA"/>
  <rect x="48" y="48" width="864" height="1184" rx="44" fill="url(#bg)"/>
  <ellipse cx="738" cy="232" rx="122" ry="122" fill="#F5D2A8" fill-opacity="0.78"/>
  <path d="M98 876C206 710 326 636 480 634C622 632 744 564 854 400V1138H98V876Z" fill="#A5B99D"/>
  <path d="M94 968C212 826 318 770 458 774C602 778 720 730 860 604V1138H94V968Z" fill="#7D9779"/>
  <path d="M92 1066C232 1004 356 988 504 998C662 1010 764 972 866 912V1138H92V1066Z" fill="#577463"/>
  <path d="M178 478C260 404 334 388 402 428C470 468 536 464 604 420C688 366 744 376 792 430" stroke="#FFFFFF" stroke-opacity="0.8" stroke-width="14" stroke-linecap="round"/>
  <path d="M220 350L302 226L386 350H220Z" fill="#C38B59"/>
  <path d="M504 318L594 176L686 318H504Z" fill="#AD744B"/>
  <rect x="162" y="144" width="238" height="68" rx="34" fill="white" fill-opacity="0.78"/>
  <defs>
    <linearGradient id="bg" x1="480" y1="48" x2="480" y2="1232" gradientUnits="userSpaceOnUse">
      <stop stop-color="#F7EFE7"/>
      <stop offset="0.48" stop-color="#E0D1B8"/>
      <stop offset="1" stop-color="#C5A980"/>
    </linearGradient>
  </defs>
</svg>
